<?xml version="1.0" encoding="UTF-8"?>
<svg version="1.1" xmlns="http://www.w3.org/2000/svg" width="500" height="500">
<path d="M0 0 C2.48255634 1.4847825 4.69703105 3.08863507 6.94921875 4.90234375 C25.17682322 18.36968127 45.4822175 24.65936979 68.12109375 21.453125 C69.55195312 21.18048828 69.55195312 21.18048828 71.01171875 20.90234375 C79.70873296 19.2931003 89.22210956 17.87483269 97.32421875 22.15234375 C105.4718646 27.90043333 110.64855518 36.67450665 114.75390625 45.57421875 C116.40625397 48.79251693 118.53554167 51.50971298 120.8125 54.30859375 C121.94921875 55.90234375 121.94921875 55.90234375 121.94921875 57.90234375 C122.93921875 58.23234375 123.92921875 58.56234375 124.94921875 58.90234375 C127.13671875 60.83984375 127.13671875 60.83984375 128.94921875 62.90234375 C128.94921875 63.56234375 128.94921875 64.22234375 128.94921875 64.90234375 C129.5215625 65.18335937 130.09390625 65.464375 130.68359375 65.75390625 C133.62099132 67.24286295 136.47391338 68.86704327 139.33984375 70.48828125 C140.2009375 70.95492187 141.06203125 71.4215625 141.94921875 71.90234375 C142.51962891 72.2166333 143.09003906 72.53092285 143.67773438 72.85473633 C149.71786305 76.05008581 155.94889149 77.77612037 162.52734375 79.52539062 C171.91441745 82.16730477 179.50481737 86.61298992 184.94921875 94.90234375 C188.07486476 102.20696703 188.94356803 109.96324551 189.18823242 117.85107422 C189.82068489 136.04301252 195.721131 151.1776079 208.94921875 163.90234375 C210.99851782 165.6114117 213.05353973 167.29875179 215.13671875 168.96484375 C220.8508706 173.57843829 224.68002679 178.36395984 227.94921875 184.90234375 C229.28629673 198.85591517 229.07230811 211.79555019 222.67578125 224.4140625 C217.22091005 235.43487695 216.80526481 250.76882646 220.63671875 262.46484375 C221.76617151 265.21034317 222.94874116 267.90136337 224.24902344 270.57055664 C227.92948189 278.4522543 228.68919434 285.14339634 228.51171875 293.77734375 C228.52267578 294.96070313 228.53363281 296.1440625 228.54492188 297.36328125 C228.49127736 303.71479203 228.33834276 307.96361162 223.94921875 312.90234375 C223.315 313.7634375 222.68078125 314.62453125 222.02734375 315.51171875 C219.77943403 318.09766001 217.41034975 320.06089984 214.69921875 322.15234375 C200.78244232 333.36359507 192.24344867 346.96365072 189.94921875 364.90234375 C189.8521608 367.22907534 189.80571872 369.55427761 189.76049805 371.88256836 C189.49086404 383.24479515 188.27754648 394.3356855 179.94921875 402.90234375 C173.1286319 407.8839079 165.83826653 410.57776688 157.82421875 413.02734375 C148.84933862 415.81728776 140.52795136 418.45572951 133.19921875 424.52734375 C129.28509715 427.75156622 129.28509715 427.75156622 126.80859375 428.86328125 C124.41653814 430.20001821 124.06300553 431.42726203 122.94921875 433.90234375 C121.72057263 435.58481411 120.46802304 437.24994747 119.19921875 438.90234375 C116.28910875 442.82968138 113.96582692 446.66823635 111.88671875 451.08984375 C107.59753267 459.93128599 102.56858897 465.67026836 93.515625 469.83984375 C84.33640821 472.57450636 74.40188516 471.39829025 65.07421875 469.90234375 C48.62156857 467.35065958 36.15166958 467.78424062 21.94921875 476.90234375 C21.14871094 477.41410156 20.34820312 477.92585938 19.5234375 478.453125 C18.15071935 479.37085559 16.78839522 480.30434495 15.4375 481.25390625 C11.93153188 483.57654133 8.29565131 485.64403493 4.63671875 487.71484375 C3.94191406 488.11243896 3.24710937 488.51003418 2.53125 488.91967773 C1.86867188 489.29165283 1.20609375 489.66362793 0.5234375 490.046875 C-0.36468628 490.54731323 -0.36468628 490.54731323 -1.27075195 491.05786133 C-7.24746611 493.89333716 -13.93809602 493.76141405 -20.20703125 492.03125 C-27.84110326 489.25935481 -34.36789862 485.46460278 -41.05078125 480.90234375 C-51.78226613 473.70273997 -61.27410975 468.70384329 -74.36328125 468.71484375 C-75.16435303 468.71419922 -75.9654248 468.71355469 -76.79077148 468.71289062 C-81.81261617 468.75669302 -86.6385494 469.14972874 -91.61328125 469.90234375 C-114.9647547 473.3674011 -114.9647547 473.3674011 -124.05078125 466.90234375 C-131.3369268 460.65707614 -136.108093 452.25829936 -141.04296875 444.15234375 C-151.89087053 426.59309418 -162.36694849 419.87503269 -182.04492188 413.55419922 C-202.34028065 406.95870166 -202.34028065 406.95870166 -208.80078125 398.65234375 C-212.79100132 389.8738596 -213.75450227 380.99561495 -214.55078125 371.46484375 C-216.25253309 350.5343793 -216.25253309 350.5343793 -227.6640625 333.5703125 C-229.43983044 332.17632211 -231.24192917 330.81490985 -233.07421875 329.49609375 C-234.05261719 328.7071875 -234.05261719 328.7071875 -235.05078125 327.90234375 C-235.05078125 327.24234375 -235.05078125 326.58234375 -235.05078125 325.90234375 C-235.91703125 325.53109375 -235.91703125 325.53109375 -236.80078125 325.15234375 C-239.38018104 323.71934387 -241.11199717 322.11809699 -243.05078125 319.90234375 C-243.05078125 319.24234375 -243.05078125 318.58234375 -243.05078125 317.90234375 C-243.71078125 317.90234375 -244.37078125 317.90234375 -245.05078125 317.90234375 C-246.7421875 315.3828125 -246.7421875 315.3828125 -248.61328125 312.08984375 C-249.23332031 311.01089844 -249.85335937 309.93195313 -250.4921875 308.8203125 C-255.58225423 299.29078907 -255.07254486 285.06247646 -252.05078125 274.90234375 C-250.60315448 271.62719611 -249.00332772 268.42895326 -247.42578125 265.21484375 C-241.77017182 253.43111969 -240.6902314 242.90855822 -245.01464844 230.46362305 C-246.25083632 227.222277 -247.63230655 224.06876772 -249.05078125 220.90234375 C-253.94202166 209.30659934 -256.86016475 196.2693299 -252.10546875 184.04296875 C-250.15416596 180.08254679 -247.92948394 176.26083022 -245.05078125 172.90234375 C-244.06078125 172.57234375 -243.07078125 172.24234375 -242.05078125 171.90234375 C-241.72078125 170.91234375 -241.39078125 169.92234375 -241.05078125 168.90234375 C-239.265625 167.39453125 -239.265625 167.39453125 -236.98828125 165.77734375 C-225.64254501 157.16899149 -218.11379488 145.86465356 -215.05078125 131.90234375 C-214.68536811 128.12931075 -214.64248342 124.37850741 -214.61328125 120.58984375 C-214.30057105 108.81988394 -213.1668943 98.08636641 -205.05078125 88.90234375 C-204.39078125 88.90234375 -203.73078125 88.90234375 -203.05078125 88.90234375 C-203.05078125 88.24234375 -203.05078125 87.58234375 -203.05078125 86.90234375 C-196.24266254 81.06925712 -187.7707247 79.24495141 -179.3359375 77.046875 C-171.32632337 74.95173132 -164.69880085 72.00210371 -157.9609375 67.171875 C-156.05078125 65.90234375 -156.05078125 65.90234375 -153.05078125 64.90234375 C-152.34552561 63.58901336 -151.68292489 62.25238695 -151.05078125 60.90234375 C-150.0421013 59.72736791 -148.99685173 58.5832406 -147.92578125 57.46484375 C-141.96554434 50.80924586 -137.59095551 42.95855832 -133.55078125 35.02734375 C-129.3766435 27.43292591 -123.21247654 23.31071285 -115.05078125 20.90234375 C-108.20092566 18.91949082 -101.25562465 19.43163386 -94.48828125 21.40234375 C-79.24888241 25.52110019 -64.0277469 22.77871188 -50.05078125 15.90234375 C-49.29667969 15.5671875 -48.54257813 15.23203125 -47.765625 14.88671875 C-41.6369178 12.05655152 -36.33946185 8.41758344 -30.96020508 4.38037109 C-22.21459355 -2.11922257 -10.43480125 -3.75439072 0 0 Z " fill="#3897F0" transform="translate(264.05078125,3.09765625)"/>
<path d="M0 0 C3.11808245 1.37171786 5.09854729 2.90631447 7.390625 5.4140625 C8.32648438 6.42678223 8.32648438 6.42678223 9.28125 7.45996094 C9.9309375 8.17442383 10.580625 8.88888672 11.25 9.625 C15.96099984 14.75825515 20.66856171 19.77946752 25.875 24.421875 C27 26 27 26 26.88916016 27.76367188 C25.61374739 30.97146455 23.33977588 33.00934914 20.8984375 35.359375 C20.38374908 35.8674469 19.86906067 36.3755188 19.33877563 36.89898682 C17.69114067 38.52325614 16.03372766 40.13706692 14.375 41.75 C12.73937316 43.35024884 11.10601113 44.95271104 9.47549438 46.5581665 C8.46253106 47.55452709 7.44648454 48.54776815 6.42660522 49.53704834 C3.77591493 52.13348065 1.28314158 54.80364549 -1.12728882 57.62530518 C-5.20314798 62.30105452 -9.54666856 66.67254028 -13.9453125 71.04296875 C-15.24671173 72.34217758 -15.24671173 72.34217758 -16.57440186 73.66763306 C-18.4464238 75.5358685 -20.31931413 77.40317994 -22.19378662 79.26895142 C-25.16470542 82.22622291 -28.13169453 85.18741671 -31.09814453 88.14916992 C-37.93004806 94.96908721 -44.76698019 101.78395597 -51.60397339 108.59877014 C-57.87576813 114.85032404 -64.14646512 121.10296895 -70.41310692 127.35968876 C-73.35515395 130.29678856 -76.29961272 133.23144133 -79.24601746 136.16416931 C-81.51757991 138.42644662 -83.78585457 140.69201702 -86.0546875 142.95703125 C-87.26279083 144.1573851 -87.26279083 144.1573851 -88.49530029 145.38198853 C-92.65527448 149.5415752 -96.63467269 153.78840697 -100.4730854 158.2462616 C-102.41610514 160.47791774 -104.46310091 162.58315356 -106.55834961 164.671875 C-107.78883278 165.90224487 -107.78883278 165.90224487 -109.04417419 167.1574707 C-110.33521812 168.44077271 -110.33521812 168.44077271 -111.65234375 169.75 C-112.55247696 170.64871826 -113.45261017 171.54743652 -114.38002014 172.47338867 C-116.74711263 174.83586575 -119.11634639 177.19615112 -121.48669434 179.55535889 C-123.91550742 181.97385181 -126.34141103 184.39525946 -128.76757812 186.81640625 C-133.50907369 191.54692954 -138.25341898 196.27457973 -143 201 C-146.60162028 199.47393822 -148.90619179 197.34159874 -151.6574707 194.58544922 C-152.57555008 193.67044647 -153.49362946 192.75544373 -154.43952942 191.81271362 C-155.43512484 190.81021513 -156.43053749 189.80753511 -157.42578125 188.8046875 C-158.456681 187.77259417 -159.48795231 186.74087186 -160.51957703 185.70950317 C-162.68209946 183.54541733 -164.84122567 181.37801816 -166.99780273 179.20800781 C-169.74284632 176.44607072 -172.49432909 173.69066464 -175.24821186 170.93754387 C-177.38052847 168.80495317 -179.51021203 166.66974893 -181.63905907 164.53369522 C-182.65142536 163.5181763 -183.66437238 162.50323593 -184.67794228 161.4889183 C-189.75757483 156.40143934 -194.71708896 151.27948915 -199.39961243 145.82376099 C-202.06954554 142.78117309 -204.93452144 139.94208405 -207.80859375 137.09375 C-208.42017838 136.48358032 -209.031763 135.87341064 -209.66188049 135.24475098 C-211.58471802 133.32743835 -213.51103094 131.41366298 -215.4375 129.5 C-216.75479059 128.18773415 -218.07184986 126.87523605 -219.38867188 125.5625 C-222.5897861 122.37231494 -225.79401865 119.18529349 -229 116 C-228.0434578 114.87835006 -227.08610792 113.75738888 -226.12841797 112.63671875 C-225.59538055 112.01240967 -225.06234314 111.38810059 -224.51315308 110.74487305 C-217.80649872 103.01118067 -209.99587448 96.35250822 -202 90 C-198.97489042 92.99571324 -195.95572125 95.99734805 -192.9375 99 C-192.08994141 99.83917969 -191.24238281 100.67835938 -190.36914062 101.54296875 C-185.92237824 105.97256217 -181.64067429 110.46405922 -177.55297852 115.2265625 C-175.31646761 117.78056584 -172.92917744 120.12797968 -170.5 122.5 C-167.40285598 125.55098845 -164.38048866 128.62343509 -161.5625 131.9375 C-156.72428076 137.61766426 -151.31102982 142.7674583 -146 148 C-139.81267245 142.88355607 -134.16265129 137.31167952 -128.5 131.625 C-127.58863281 130.7175 -126.67726563 129.81 -125.73828125 128.875 C-124.84496094 127.98039062 -123.95164062 127.08578125 -123.03125 126.1640625 C-122.23267578 125.36436035 -121.43410156 124.5646582 -120.61132812 123.74072266 C-118.58540793 121.61441562 -116.65989035 119.46556417 -114.74609375 117.24169922 C-110.71588624 112.60310081 -106.39733437 108.28925983 -102.03125 103.96875 C-101.1921106 103.13339722 -100.35297119 102.29804443 -99.48840332 101.43737793 C-95.9314548 97.89663871 -92.3685388 94.36192676 -88.80615234 90.82666016 C-86.19159836 88.2302794 -83.58011816 85.63083434 -80.96875 83.03125 C-80.17376099 82.24455933 -79.37877197 81.45786865 -78.55969238 80.64733887 C-74.44573656 76.55131831 -70.53057326 72.36781784 -66.74401855 67.96887207 C-63.61948647 64.44149907 -60.25665126 61.15485373 -56.90625 57.84375 C-56.15589478 57.0971814 -55.40553955 56.35061279 -54.63244629 55.5814209 C-51.45783496 52.42298888 -48.27724084 49.27060721 -45.09716797 46.11767578 C-42.76059639 43.79930255 -40.42712001 41.4778448 -38.09375 39.15625 C-37.03250916 38.10745667 -37.03250916 38.10745667 -35.9498291 37.03747559 C-32.00291435 33.10980148 -28.26500382 29.07292819 -24.62924194 24.85632324 C-22.28466644 22.18496432 -19.80600189 19.69410358 -17.28515625 17.1875 C-16.78455185 16.68831055 -16.28394745 16.18912109 -15.76817322 15.67480469 C-14.20199236 14.1141263 -12.63233529 12.55700153 -11.0625 11 C-9.98609346 9.92862113 -8.90991986 8.85700818 -7.83398438 7.78515625 C-5.22533255 5.18740362 -2.61355529 2.59282038 0 0 Z " fill="#FDFEFE" transform="translate(351,147)"/>
<path d="M0 0 C1.36061354 2.64432283 2.52132115 5.30330289 3.625 8.0625 C7.92883954 17.66337281 14.15790039 24.53396379 22.38671875 30.953125 C33.07722003 39.32655201 37.99022249 48.53882834 40 62 C40.17969842 64.73302521 40.32967144 67.45217543 40.4375 70.1875 C40.69046583 76.49867324 41.47774051 82.51130188 42.8125 88.6875 C42.96581787 89.42959717 43.11913574 90.17169434 43.27709961 90.9362793 C44.88122848 97.90075949 47.94201291 102.98125082 54 107 C56.73464796 108.30935582 59.53321692 109.38440594 62.375 110.4375 C63.16575928 110.73897949 63.95651855 111.04045898 64.77124023 111.35107422 C69.82467364 113.25655848 74.92024419 114.97791768 80.0625 116.625 C95.37423993 121.67461636 105.22881346 130.3637087 113.125 144.4375 C122.27386627 161.29557568 122.27386627 161.29557568 138 171 C145.048905 171.87406422 151.93943733 170.91561134 158.9375 170 C165.77165933 169.11438254 172.54666272 168.71812729 179.4375 168.625 C180.78606079 168.58632813 180.78606079 168.58632813 182.16186523 168.546875 C191.73976971 168.51860335 199.33989373 172.24901157 207.3125 177.25 C208.26008179 177.82935303 208.26008179 177.82935303 209.22680664 178.42041016 C212.35831614 180.33948249 215.4672483 182.29317097 218.5703125 184.2578125 C230.74505074 192.12131802 230.74505074 192.12131802 244.875 192.63671875 C257.04315637 189.2489934 268.31106892 181.00420066 278.62109375 173.9453125 C285.73599135 169.84910556 292.22739076 168.51119429 300.375 168.6875 C301.23206543 168.69587891 302.08913086 168.70425781 302.97216797 168.71289062 C310.65326845 168.85344141 318.22215937 169.66672563 325.84765625 170.5390625 C335.57147997 171.64102326 343.64096632 171.59814618 351.89379883 165.63061523 C357.39308391 161.1970881 360.33944596 156.45980426 363.4375 150.1875 C367.52387509 142.36090823 371.51998477 136.07956485 378 130 C378.58523438 129.38511719 379.17046875 128.77023437 379.7734375 128.13671875 C389.32230101 118.73379857 402.45493928 114.66275312 415.03222656 111.15039062 C423.09780878 108.83331143 430.58858965 105.51573615 435 98 C438.16897661 91.14908293 439.2834716 84.64222199 439.5625 77.1875 C440.2761934 58.30526823 445.03043788 42.42402831 459 29 C460.31584159 27.79730511 461.63513206 26.59837745 462.95703125 25.40234375 C464.38916286 24.10281995 465.82013754 22.80202012 467.25 21.5 C467.95310303 20.85998047 468.65620605 20.21996094 469.38061523 19.56054688 C474.29817323 14.96353297 477.91376491 10.51948465 480 4 C480.33 4 480.66 4 481 4 C481.50921999 9.34680994 480.22864566 11.78482372 477 16 C476.401875 16.79792969 475.80375 17.59585937 475.1875 18.41796875 C472.9051738 21.11192878 470.54206853 23.09611856 467.75 25.25 C453.83322357 36.46125132 445.29422992 50.06130697 443 68 C442.90294205 70.32673159 442.85649997 72.65193386 442.8112793 74.98022461 C442.54164529 86.3424514 441.32832773 97.43334175 433 106 C426.17941315 110.98156415 418.88904778 113.67542313 410.875 116.125 C401.90011987 118.91494401 393.57873261 121.55338576 386.25 127.625 C382.3358784 130.84922247 382.3358784 130.84922247 379.859375 131.9609375 C377.46731939 133.29767446 377.11378678 134.52491828 376 137 C374.77135388 138.68247036 373.51880429 140.34760372 372.25 142 C369.33989 145.92733763 367.01660817 149.7658926 364.9375 154.1875 C360.64831392 163.02894224 355.61937022 168.76792461 346.56640625 172.9375 C337.38718946 175.67216261 327.45266641 174.4959465 318.125 173 C301.67234982 170.44831583 289.20245083 170.88189687 275 180 C274.19949219 180.51175781 273.39898437 181.02351562 272.57421875 181.55078125 C271.2015006 182.46851184 269.83917647 183.4020012 268.48828125 184.3515625 C264.98231313 186.67419758 261.34643256 188.74169118 257.6875 190.8125 C256.99269531 191.21009521 256.29789062 191.60769043 255.58203125 192.01733398 C254.91945313 192.38930908 254.256875 192.76128418 253.57421875 193.14453125 C252.68609497 193.64496948 252.68609497 193.64496948 251.7800293 194.15551758 C245.80331514 196.99099341 239.11268523 196.8590703 232.84375 195.12890625 C225.20967799 192.35701106 218.68288263 188.56225903 212 184 C201.26851512 176.80039622 191.7766715 171.80149954 178.6875 171.8125 C177.88642822 171.81185547 177.08535645 171.81121094 176.26000977 171.81054688 C171.23816508 171.85434927 166.41223185 172.24738499 161.4375 173 C138.08602655 176.46505735 138.08602655 176.46505735 129 170 C121.71385445 163.75473239 116.94268825 155.35595561 112.0078125 147.25 C101.15991072 129.69075043 90.68383276 122.97268894 71.00585938 116.65185547 C50.7105006 110.05635791 50.7105006 110.05635791 44.25 101.75 C40.25977993 92.97151585 39.29627898 84.0932712 38.5 74.5625 C36.79824816 53.63203555 36.79824816 53.63203555 25.38671875 36.66796875 C23.61095081 35.27397836 21.80885208 33.9125661 19.9765625 32.59375 C19.32429688 32.0678125 18.67203125 31.541875 18 31 C18 30.34 18 29.68 18 29 C17.4225 28.7525 16.845 28.505 16.25 28.25 C13.67060021 26.81700012 11.93878408 25.21575324 10 23 C10 22.34 10 21.68 10 21 C9.34 21 8.68 21 8 21 C3.1123109 14.32881233 0.13809728 8.28583666 0 0 Z " fill="#F5FAFE" transform="translate(11,300)"/>
<path d="M0 0 C6.76496218 0.28787073 10.59443388 3.14011493 16 7 C35.18214562 19.9493713 55.89542624 26.41426676 79.0625 22 C87.75951421 20.39075655 97.27289081 18.97248894 105.375 23.25 C113.52264585 28.99808958 118.69933643 37.7721629 122.8046875 46.671875 C124.45703522 49.89017318 126.58632292 52.60736923 128.86328125 55.40625 C130 57 130 57 130 59 C130.99 59.33 131.98 59.66 133 60 C135.1875 61.9375 135.1875 61.9375 137 64 C137 64.66 137 65.32 137 66 C137.85851562 66.42152344 137.85851562 66.42152344 138.734375 66.8515625 C141.67177257 68.3405192 144.52469463 69.96469952 147.390625 71.5859375 C148.25171875 72.05257812 149.1128125 72.51921875 150 73 C150.57041016 73.31428955 151.14082031 73.6285791 151.72851562 73.95239258 C157.7686443 77.14774206 163.99967274 78.87377662 170.578125 80.62304688 C179.9651987 83.26496102 187.55559862 87.71064617 193 96 C196.12564601 103.30462328 196.99434928 111.06090176 197.23901367 118.94873047 C197.87146614 137.14066877 203.77191225 152.27526415 217 165 C219.04929002 166.7090604 221.10496325 168.39563282 223.1875 170.0625 C229.27316773 175.00710503 233.97128452 179.81165841 235.875 187.5625 C235.91625 188.366875 235.9575 189.17125 236 190 C234.89375814 188.34063721 233.79643889 186.6748064 232.73828125 184.984375 C228.34264032 178.09586374 223.2511194 172.90530932 217.0625 167.625 C203.3316294 155.61711509 195.74958154 140.96338238 194.41015625 122.67578125 C194.21973713 119.48184411 194.0613896 116.28808592 193.91601562 113.09179688 C193.32958854 103.48979377 190.88270659 95.88270659 184 89 C178.5090958 85.39593161 173.2036472 83.78910289 166.875 82.1875 C154.29591942 78.78712853 143.90068885 73.62886123 134 65 C133.40960938 64.50371094 132.81921875 64.00742188 132.2109375 63.49609375 C124.96509379 56.89542791 119.91785987 47.73252397 115.375 39.125 C111.55517033 32.14796418 107.02758519 26.52158348 99.4453125 23.6171875 C93.28690603 22.06282932 87.32238845 22.64541663 81.1875 24 C63.19208738 27.59391143 44.24356319 25.44569312 28 17 C27.09636719 16.54625 26.19273437 16.0925 25.26171875 15.625 C19.26783909 12.50513053 13.93084313 8.89155076 8.60546875 4.734375 C5.81113326 2.87427761 3.215148 1.91995476 0 1 C0 0.67 0 0.34 0 0 Z " fill="#F0F7FE" transform="translate(256,2)"/>
<path d="M0 0 C1.36061354 2.64432283 2.52132115 5.30330289 3.625 8.0625 C7.92883954 17.66337281 14.15790039 24.53396379 22.38671875 30.953125 C33.08340618 39.33139737 37.97761761 48.53671155 40 62 C40.29799134 65.4560145 40.44704484 68.9169644 40.5847168 72.38256836 C40.95116462 80.38922708 42.43839137 88.15267108 44 96 C38.04245568 90.8865764 38.90741801 81.23378585 38.30395508 73.92016602 C36.71932498 53.33784465 36.71932498 53.33784465 25.38671875 36.66796875 C23.61095081 35.27397836 21.80885208 33.9125661 19.9765625 32.59375 C19.32429688 32.0678125 18.67203125 31.541875 18 31 C18 30.34 18 29.68 18 29 C17.4225 28.7525 16.845 28.505 16.25 28.25 C13.67060021 26.81700012 11.93878408 25.21575324 10 23 C10 22.34 10 21.68 10 21 C9.34 21 8.68 21 8 21 C3.1123109 14.32881233 0.13809728 8.28583666 0 0 Z " fill="#E8F3FD" transform="translate(11,300)"/>
<path d="M0 0 C0.33 0 0.66 0 1 0 C1.42625333 5.99912094 0.0748752 10.06555462 -2.375 15.5 C-8.31713884 29.00266509 -11.04536154 44.1148174 -6.3125 58.5625 C-5.5832612 60.3921314 -4.81170501 62.20543174 -4 64 C1.68714198 76.95315057 1.68714198 76.95315057 1 83 C0.67 83 0.34 83 0 83 C-0.13535156 82.47535156 -0.27070313 81.95070313 -0.41015625 81.41015625 C-2.26894945 74.72072684 -4.81026994 68.42308586 -7.57446289 62.06665039 C-13.39785164 48.42305732 -12.68919799 32.11696683 -7.44140625 18.421875 C-6.96574219 17.29265625 -6.49007813 16.1634375 -6 15 C-5.30197266 13.27523437 -5.30197266 13.27523437 -4.58984375 11.515625 C-3.749204 9.46671878 -2.89338073 7.42390727 -2.015625 5.390625 C-0.93081389 2.92560239 -0.93081389 2.92560239 0 0 Z " fill="#F3F8FE" transform="translate(491,207)"/>
<path d="M0 0 C0.66 0.33 1.32 0.66 2 1 C0.58474822 2.58459815 -0.8322642 4.16762391 -2.25 5.75 C-3.03890625 6.63171875 -3.8278125 7.5134375 -4.640625 8.421875 C-6.70649616 10.67928389 -8.81804203 12.855662 -11 15 C-11.5775 15.5775 -12.155 16.155 -12.75 16.75 C-13.1625 17.1625 -13.575 17.575 -14 18 C-12.6393389 12.80474854 -10.64232612 9.82444243 -7 6 C-6.34 6 -5.68 6 -5 6 C-4.67 5.01 -4.34 4.02 -4 3 C-1.9375 1.3125 -1.9375 1.3125 0 0 Z " fill="#B9DBFA" transform="translate(27,169)"/>
<path d="M0 0 C0.66 0.33 1.32 0.66 2 1 C1.01 1.33 0.02 1.66 -1 2 C-1.68644171 3.32326112 -2.35115554 4.65790347 -3 6 C-4.62109375 7.5625 -4.62109375 7.5625 -6.4375 9 C-9.03817678 11.13472219 -11.14249929 13.15911656 -13 16 C-12.49890042 11.61537866 -11.01704885 9.1999003 -8 6 C-7.34 6 -6.68 6 -6 6 C-6 5.34 -6 4.68 -6 4 C-4.03852126 2.61061923 -2.03833424 1.2739589 0 0 Z " fill="#B5D8FA" transform="translate(67,86)"/>
<path d="M0 0 C4.04161955 1.34484714 6.38678154 3.0505162 9.3125 6.125 C10.00988281 6.84945313 10.70726562 7.57390625 11.42578125 8.3203125 C11.94527344 8.87460937 12.46476562 9.42890625 13 10 C9.03990775 10 7.85479241 8.59219817 4.8125 6.125 C3.91144531 5.40570313 3.01039062 4.68640625 2.08203125 3.9453125 C1.39496094 3.30335938 0.70789063 2.66140625 0 2 C0 1.34 0 0.68 0 0 Z " fill="#F9FBFE" transform="translate(29,329)"/>
<path d="M0 0 C0.66 0.66 1.32 1.32 2 2 C1.75 5.5625 1.75 5.5625 1 9 C0.01 9.495 0.01 9.495 -1 10 C-0.67 6.7 -0.34 3.4 0 0 Z " fill="#E2EFFC" transform="translate(481,233)"/>
</svg>
